<svg xmlns="http://www.w3.org/2000/svg" fill="none" viewBox="0 0 24 24" id="History-Edu--Streamline-Sharp-Material" height="24" width="24">
  <path fill="#000000" d="M8.025 20c-0.4 0 -0.75 -0.15 -1.05 -0.45 -0.3 -0.3 -0.45 -0.65 -0.45 -1.05v-2.5h3.1v-3.175c-0.63335 0.05 -1.26665 -0.0375 -1.9 -0.2625 -0.63335 -0.225 -1.2 -0.57915 -1.7 -1.0625v-1.45h-1.25L1.5 6.775c0.6 -0.56665 1.316665 -1.02915 2.15 -1.3875 0.833335 -0.35835 1.68335 -0.5375 2.55 -0.5375 0.5 0 1.07085 0.079165 1.7125 0.2375 0.64165 0.15835 1.2125 0.4125 1.7125 0.7625V4H21v13.375c0 0.73335 -0.25415 1.35415 -0.7625 1.8625C19.72915 19.74585 19.10835 20 18.375 20h-10.35Zm3.1 -4H17.25v1.375c0 0.33335 0.10415 0.60415 0.3125 0.8125 0.20835 0.20835 0.47915 0.3125 0.8125 0.3125s0.60415 -0.10415 0.8125 -0.3125c0.20835 -0.20835 0.3125 -0.47915 0.3125 -0.8125V5.5H11.125v1.425L17.15 12.95v1.075h-1.075l-3.15 -3.15 -0.425 0.5c-0.21665 0.25 -0.43335 0.44165 -0.65 0.575 -0.21665 0.13335 -0.45835 0.25835 -0.725 0.375V16ZM5.45 8.55h2.075v2.225c0.28335 0.18335 0.5625 0.32085 0.8375 0.4125 0.275 0.09165 0.55415 0.1375 0.8375 0.1375 0.41665 0 0.84165 -0.1125 1.275 -0.3375 0.43335 -0.225 0.75 -0.45415 0.95 -0.6875l0.425 -0.5 -1.725 -1.725c-0.53335 -0.53335 -1.13335 -0.95415 -1.8 -1.2625 -0.66665 -0.30835 -1.375 -0.4625 -2.125 -0.4625 -0.45 0 -0.85835 0.05415 -1.225 0.1625 -0.366665 0.10835 -0.741665 0.25415 -1.125 0.4375l1.6 1.6ZM15.75 17.5H8.025v1H16.1c-0.1 -0.1 -0.18335 -0.2375 -0.25 -0.4125 -0.06665 -0.175 -0.1 -0.37085 -0.1 -0.5875Z" stroke-width="0.5"></path>
</svg>